<svg xmlns="http://www.w3.org/2000/svg" viewBox="0 0 349.05 133.3"><defs><style>.cls-1{fill:#e17234;}.cls-2{fill:#004a80;}.cls-3{fill:#009e9d;}.cls-4{fill:#f26522;}</style></defs><g id="Layer_2" data-name="Layer 2"><g id="Layer_1-2" data-name="Layer 1"><path class="cls-1" d="M328.69,71.77a43.9,43.9,0,0,0,.13-8.41l20.23-7-21.35-.29a46,46,0,0,0-13.5-23l10.07-19L308.39,28.49a45.71,45.71,0,0,0-20.47-7.4,46.88,46.88,0,0,0-5.14-.24L277.42,0l-2,21.47a45.69,45.69,0,0,0-16,5.84l3.49,4.25a40.56,40.56,0,1,1,21,75.81v5.43a46.32,46.32,0,0,0,6.49-.59L298.84,132l-1.26-21.55A46.14,46.14,0,0,0,319,95.4l19.6,8.49L323.09,89.32a45.65,45.65,0,0,0,5.6-17.55"/><path class="cls-1" d="M326.51,45.31a5.66,5.66,0,1,0-1.35-7.89,5.66,5.66,0,0,0,1.35,7.89"/><path class="cls-1" d="M330.37,74.92a5.66,5.66,0,1,0,7.89-1.35,5.66,5.66,0,0,0-7.89,1.35"/><path class="cls-1" d="M309.3,106.7a5.66,5.66,0,1,0,7.88-1.35,5.65,5.65,0,0,0-7.88,1.35"/><path class="cls-1" d="M293.16,19.88A5.66,5.66,0,1,0,291.81,12a5.66,5.66,0,0,0,1.35,7.89"/><polygon class="cls-2" points="0.3 64.81 20.02 64.81 31.75 103.77 44.74 64.62 60.8 64.62 73.79 103.77 85.52 64.81 104.86 64.81 82.35 132.63 66.09 132.63 52.63 93.86 39.06 132.63 22.81 132.63 0.3 64.81"/><polygon class="cls-2" points="107.22 64.81 161.98 64.81 161.98 80.77 125.9 80.77 125.9 91.17 158.58 91.17 158.58 106.05 125.9 106.05 125.9 116.85 162.47 116.85 162.47 132.9 107.22 132.9 107.22 64.81"/><path class="cls-2" d="M196.2,133.3a52,52,0,0,1-17.12-2.79,42.58,42.58,0,0,1-14.43-8.37L175,109.74q10.29,8.07,21.83,8.07a11.23,11.23,0,0,0,5.82-1.2,3.77,3.77,0,0,0,2-3.41V113a3.92,3.92,0,0,0-.48-1.93,4.41,4.41,0,0,0-1.78-1.59,20.17,20.17,0,0,0-3.51-1.44q-2.2-.72-5.67-1.59-5.39-1.24-10-2.74a30.53,30.53,0,0,1-8-3.84,17.6,17.6,0,0,1-5.39-5.82,17.36,17.36,0,0,1-2-8.66v-.19a20.9,20.9,0,0,1,1.78-8.66,19.18,19.18,0,0,1,5.2-6.83A24.25,24.25,0,0,1,183,65.25a34.56,34.56,0,0,1,10.87-1.59,48.65,48.65,0,0,1,15.44,2.26,39,39,0,0,1,12.26,6.69l-9.33,13.17a35.34,35.34,0,0,0-9.47-5,29.37,29.37,0,0,0-9.38-1.63,8.69,8.69,0,0,0-5,1.2,3.67,3.67,0,0,0-1.68,3.12v.2a3.74,3.74,0,0,0,.53,2A4.76,4.76,0,0,0,189,87.27a19.44,19.44,0,0,0,3.56,1.45q2.26.72,5.82,1.49a79.51,79.51,0,0,1,10.39,2.93,31.74,31.74,0,0,1,7.89,4.09,16.25,16.25,0,0,1,5,5.82,17.86,17.86,0,0,1,1.73,8.13v.19a20.83,20.83,0,0,1-2,9.23,19.84,19.84,0,0,1-5.53,6.88,25.1,25.1,0,0,1-8.56,4.33,39.19,39.19,0,0,1-11.16,1.49"/><polygon class="cls-2" points="226.47 64.81 226.47 81.35 246.79 81.35 246.79 132.9 265.66 132.9 265.66 81.35 286.09 81.35 286.09 64.81 226.47 64.81"/><path class="cls-3" d="M13.36,53.68a13.53,13.53,0,0,1-5.32-1,13.23,13.23,0,0,1-4.25-2.85A12.91,12.91,0,0,1,1,45.53a13.74,13.74,0,0,1-1-5.25v-.07A13.5,13.5,0,0,1,3.79,30.7a13.12,13.12,0,0,1,4.28-2.9,14.06,14.06,0,0,1,5.51-1.06,17.1,17.1,0,0,1,3.33.3,13.68,13.68,0,0,1,2.73.82,12.15,12.15,0,0,1,2.27,1.26,15.29,15.29,0,0,1,1.94,1.64L20.2,35a14.26,14.26,0,0,0-3.1-2.16A8,8,0,0,0,13.54,32a7.28,7.28,0,0,0-3,.64,7.08,7.08,0,0,0-2.4,1.75A8,8,0,0,0,6.55,37,8.85,8.85,0,0,0,6,40.14v.07a8.94,8.94,0,0,0,.56,3.16A8.38,8.38,0,0,0,8.09,46a7.2,7.2,0,0,0,2.38,1.76,7.11,7.11,0,0,0,3.07.66,8.06,8.06,0,0,0,3.78-.82,14.66,14.66,0,0,0,3.07-2.24L24,49A18.74,18.74,0,0,1,22,51a12.12,12.12,0,0,1-5.17,2.4,17,17,0,0,1-3.42.32"/><path class="cls-3" d="M26.15,27.19H38.06q4.95,0,7.59,2.64a8,8,0,0,1,2.23,6v.08A8.17,8.17,0,0,1,46.34,41a8.94,8.94,0,0,1-4,2.92l6.37,9.3H42L36.39,44.9H31.88v8.33H26.15ZM37.69,39.84a4.79,4.79,0,0,0,3.25-1,3.38,3.38,0,0,0,1.14-2.67V36.1a3.31,3.31,0,0,0-1.19-2.78,5.34,5.34,0,0,0-3.31-.92h-5.7v7.44Z"/><polygon class="cls-3" points="50.6 27.19 70.21 27.19 70.21 32.28 56.25 32.28 56.25 37.57 68.53 37.57 68.53 42.67 56.25 42.67 56.25 48.13 70.39 48.13 70.39 53.23 50.6 53.23 50.6 27.19"/><path class="cls-3" d="M73.07,27.19H83.23a15.57,15.57,0,0,1,5.6,1,13.22,13.22,0,0,1,4.39,2.74A12.29,12.29,0,0,1,96.07,35a13.12,13.12,0,0,1,1,5.11v.08a13.18,13.18,0,0,1-1,5.13,12.17,12.17,0,0,1-2.85,4.13,13.43,13.43,0,0,1-4.39,2.76,15.16,15.16,0,0,1-5.6,1H73.07ZM78.8,32.4V48h4.43a8.92,8.92,0,0,0,3.2-.55,6.83,6.83,0,0,0,2.47-1.59,7.53,7.53,0,0,0,1.6-2.45,8.15,8.15,0,0,0,.58-3.15v-.07a8.29,8.29,0,0,0-.58-3.15,7.36,7.36,0,0,0-1.6-2.48A7,7,0,0,0,86.43,33a8.71,8.71,0,0,0-3.2-.57Z"/><rect class="cls-3" x="99.97" y="27.19" width="5.73" height="26.04"/><polygon class="cls-3" points="115.82 32.47 107.89 32.47 107.89 27.19 129.48 27.19 129.48 32.47 121.55 32.47 121.55 53.23 115.82 53.23 115.82 32.47"/><path class="cls-3" d="M149.86,53.64a11.44,11.44,0,0,1-8.26-2.9c-2-1.93-3-4.83-3-8.67V27.19h5.73V41.92a6.92,6.92,0,0,0,1.49,4.82,5.31,5.31,0,0,0,4.13,1.62,5.45,5.45,0,0,0,4.13-1.56,6.6,6.6,0,0,0,1.49-4.69V27.19h5.73V41.88a15,15,0,0,1-.81,5.18,9.73,9.73,0,0,1-2.28,3.66,9.4,9.4,0,0,1-3.61,2.19,14.4,14.4,0,0,1-4.73.73"/><polygon class="cls-3" points="164.67 27.19 169.95 27.19 182.16 43.22 182.16 27.19 187.81 27.19 187.81 53.23 182.94 53.23 170.33 36.67 170.33 53.23 164.67 53.23 164.67 27.19"/><rect class="cls-3" x="191.87" y="27.19" width="5.73" height="26.04"/><path class="cls-3" d="M214.3,53.68a14.13,14.13,0,0,1-5.54-1.06,13.71,13.71,0,0,1-4.37-2.87,12.83,12.83,0,0,1-2.87-4.24,13.4,13.4,0,0,1-1-5.23v-.07a13.27,13.27,0,0,1,1-5.23,13.43,13.43,0,0,1,7.28-7.18,15.06,15.06,0,0,1,11.1,0,13.71,13.71,0,0,1,4.37,2.87,12.68,12.68,0,0,1,2.87,4.24,13.35,13.35,0,0,1,1,5.22v.08a13.27,13.27,0,0,1-1,5.23,13.29,13.29,0,0,1-7.27,7.18,14.32,14.32,0,0,1-5.57,1.06m.08-5.29a7.86,7.86,0,0,0,3.16-.63A7.2,7.2,0,0,0,220,46a8.1,8.1,0,0,0,1.59-2.58,8.44,8.44,0,0,0,.58-3.15v-.07a8.53,8.53,0,0,0-.58-3.16,7.71,7.71,0,0,0-4.14-4.37A7.59,7.59,0,0,0,214.3,32a7.85,7.85,0,0,0-3.18.64,7.18,7.18,0,0,0-2.45,1.75,8,8,0,0,0-1.6,2.58,8.42,8.42,0,0,0-.58,3.14v.08a8.53,8.53,0,0,0,.58,3.16A7.86,7.86,0,0,0,208.71,46a8,8,0,0,0,2.49,1.77,7.62,7.62,0,0,0,3.18.64"/><polygon class="cls-3" points="230.82 27.19 236.1 27.19 248.31 43.22 248.31 27.19 253.96 27.19 253.96 53.23 249.09 53.23 236.48 36.67 236.48 53.23 230.82 53.23 230.82 27.19"/><path class="cls-1" d="M316.41,66.54a33,33,0,0,0-48.57-29.15l2.91,3.45A28.64,28.64,0,1,1,283.9,95.18v4.38a33,33,0,0,0,32.51-33"/><path class="cls-4" d="M335.64,126.9a5.93,5.93,0,0,1-6,6,5.94,5.94,0,1,1,0-11.88A5.9,5.9,0,0,1,335.64,126.9Zm-10.62,0a4.58,4.58,0,0,0,4.61,4.72,4.52,4.52,0,0,0,4.5-4.68,4.56,4.56,0,1,0-9.11,0Zm3.64,3.1h-1.37v-5.91a11.83,11.83,0,0,1,2.27-.18,3.68,3.68,0,0,1,2.05.43,1.64,1.64,0,0,1,.58,1.3A1.52,1.52,0,0,1,331,127v.07a1.74,1.74,0,0,1,1.08,1.44,4.36,4.36,0,0,0,.44,1.48H331a5.14,5.14,0,0,1-.47-1.44c-.11-.65-.47-.94-1.22-.94h-.65Zm0-3.35h.64c.76,0,1.37-.25,1.37-.87s-.39-.9-1.26-.9a2.88,2.88,0,0,0-.75.08Z"/></g></g></svg>